<?xml version="1.0" encoding="UTF-8" standalone="no"?>
<!DOCTYPE svg PUBLIC "-//W3C//DTD SVG 1.1//EN"
 "http://www.w3.org/Graphics/SVG/1.1/DTD/svg11.dtd">
<!-- Generated by graphviz version 2.26.3 (20100126.1600)
 -->
<!-- Title: kernel_sup (&lt;0.10.0&gt;) Pages: 1 -->
<svg width="2003pt" height="188pt"
 viewBox="0.00 0.00 2003.00 188.00" xmlns="http://www.w3.org/2000/svg" xmlns:xlink="http://www.w3.org/1999/xlink">
<g id="graph1" class="graph" transform="scale(1 1) rotate(0) translate(4 184)">
<title>kernel_sup (&lt;0.10.0&gt;)</title>
<polygon fill="white" stroke="white" points="-4,5 -4,-184 2000,-184 2000,5 -4,5"/>
<!-- kernel_sup (&lt;0.10.0&gt;) -->
<g id="node1" class="node"><title>kernel_sup (&lt;0.10.0&gt;)</title>
<ellipse fill="none" stroke="black" cx="927" cy="-162" rx="93.9149" ry="18"/>
<text text-anchor="middle" x="927" y="-157.4" font-family="Times,serif" font-size="14.00">kernel_sup (&lt;0.10.0&gt;)</text>
</g>
<!-- inet_db (&lt;0.16.0&gt;) -->
<g id="node3" class="node"><title>inet_db (&lt;0.16.0&gt;)</title>
<ellipse fill="none" stroke="black" cx="81" cy="-90" rx="81.1693" ry="18"/>
<text text-anchor="middle" x="81" y="-85.4" font-family="Times,serif" font-size="14.00">inet_db (&lt;0.16.0&gt;)</text>
</g>
<!-- kernel_sup (&lt;0.10.0&gt;)&#45;&#45;inet_db (&lt;0.16.0&gt;) -->
<g id="edge2" class="edge"><title>kernel_sup (&lt;0.10.0&gt;)&#45;&#45;inet_db (&lt;0.16.0&gt;)</title>
<path fill="none" stroke="black" d="M834.092,-159.135C691.085,-153.876 408.651,-140.122 171,-108 160.578,-106.591 149.548,-104.713 138.916,-102.7"/>
</g>
<!-- standard_error_sup (&lt;0.20.0&gt;) -->
<g id="node5" class="node"><title>standard_error_sup (&lt;0.20.0&gt;)</title>
<ellipse fill="none" stroke="black" cx="305" cy="-90" rx="124.944" ry="18"/>
<text text-anchor="middle" x="305" y="-85.4" font-family="Times,serif" font-size="14.00">standard_error_sup (&lt;0.20.0&gt;)</text>
</g>
<!-- kernel_sup (&lt;0.10.0&gt;)&#45;&#45;standard_error_sup (&lt;0.20.0&gt;) -->
<g id="edge4" class="edge"><title>kernel_sup (&lt;0.10.0&gt;)&#45;&#45;standard_error_sup (&lt;0.20.0&gt;)</title>
<path fill="none" stroke="black" d="M844.039,-153.415C746.885,-143.224 581.14,-125.409 439,-108 424.904,-106.274 409.987,-104.358 395.424,-102.439"/>
</g>
<!-- &lt;0.24.0&gt; -->
<g id="node7" class="node"><title>&lt;0.24.0&gt;</title>
<ellipse fill="none" stroke="black" cx="493" cy="-90" rx="45.1145" ry="18"/>
<text text-anchor="middle" x="493" y="-85.4" font-family="Times,serif" font-size="14.00">&lt;0.24.0&gt;</text>
</g>
<!-- kernel_sup (&lt;0.10.0&gt;)&#45;&#45;&lt;0.24.0&gt; -->
<g id="edge6" class="edge"><title>kernel_sup (&lt;0.10.0&gt;)&#45;&#45;&lt;0.24.0&gt;</title>
<path fill="none" stroke="black" d="M841.664,-154.325C764.106,-146.3 646.881,-131.54 547,-108 540.267,-106.413 533.179,-104.348 526.433,-102.185"/>
</g>
<!-- kernel_safe_sup (&lt;0.25.0&gt;) -->
<g id="node9" class="node"><title>kernel_safe_sup (&lt;0.25.0&gt;)</title>
<ellipse fill="none" stroke="black" cx="669" cy="-90" rx="112.869" ry="18"/>
<text text-anchor="middle" x="669" y="-85.4" font-family="Times,serif" font-size="14.00">kernel_safe_sup (&lt;0.25.0&gt;)</text>
</g>
<!-- kernel_sup (&lt;0.10.0&gt;)&#45;&#45;kernel_safe_sup (&lt;0.25.0&gt;) -->
<g id="edge8" class="edge"><title>kernel_sup (&lt;0.10.0&gt;)&#45;&#45;kernel_safe_sup (&lt;0.25.0&gt;)</title>
<path fill="none" stroke="black" d="M873.542,-147.082C830.149,-134.972 769.147,-117.948 725.067,-105.647"/>
</g>
<!-- &lt;0.22.0&gt; -->
<g id="node11" class="node"><title>&lt;0.22.0&gt;</title>
<ellipse fill="none" stroke="black" cx="845" cy="-90" rx="45.1145" ry="18"/>
<text text-anchor="middle" x="845" y="-85.4" font-family="Times,serif" font-size="14.00">&lt;0.22.0&gt;</text>
</g>
<!-- kernel_sup (&lt;0.10.0&gt;)&#45;&#45;&lt;0.22.0&gt; -->
<g id="edge10" class="edge"><title>kernel_sup (&lt;0.10.0&gt;)&#45;&#45;&lt;0.22.0&gt;</title>
<path fill="none" stroke="black" d="M906.73,-144.202C893.641,-132.709 876.725,-117.856 863.912,-106.606"/>
</g>
<!-- file_server_2 (&lt;0.18.0&gt;) -->
<g id="node13" class="node"><title>file_server_2 (&lt;0.18.0&gt;)</title>
<ellipse fill="none" stroke="black" cx="1010" cy="-90" rx="101.965" ry="18"/>
<text text-anchor="middle" x="1010" y="-85.4" font-family="Times,serif" font-size="14.00">file_server_2 (&lt;0.18.0&gt;)</text>
</g>
<!-- kernel_sup (&lt;0.10.0&gt;)&#45;&#45;file_server_2 (&lt;0.18.0&gt;) -->
<g id="edge12" class="edge"><title>kernel_sup (&lt;0.10.0&gt;)&#45;&#45;file_server_2 (&lt;0.18.0&gt;)</title>
<path fill="none" stroke="black" d="M947.517,-144.202C960.286,-133.125 976.652,-118.928 989.432,-107.843"/>
</g>
<!-- code_server (&lt;0.19.0&gt;) -->
<g id="node15" class="node"><title>code_server (&lt;0.19.0&gt;)</title>
<ellipse fill="none" stroke="black" cx="1228" cy="-90" rx="97.9398" ry="18"/>
<text text-anchor="middle" x="1228" y="-85.4" font-family="Times,serif" font-size="14.00">code_server (&lt;0.19.0&gt;)</text>
</g>
<!-- kernel_sup (&lt;0.10.0&gt;)&#45;&#45;code_server (&lt;0.19.0&gt;) -->
<g id="edge14" class="edge"><title>kernel_sup (&lt;0.10.0&gt;)&#45;&#45;code_server (&lt;0.19.0&gt;)</title>
<path fill="none" stroke="black" d="M985.75,-147.947C1038.36,-135.362 1115.16,-116.992 1168.11,-104.326"/>
</g>
<!-- global_group (&lt;0.17.0&gt;) -->
<g id="node17" class="node"><title>global_group (&lt;0.17.0&gt;)</title>
<ellipse fill="none" stroke="black" cx="1446" cy="-90" rx="101.965" ry="18"/>
<text text-anchor="middle" x="1446" y="-85.4" font-family="Times,serif" font-size="14.00">global_group (&lt;0.17.0&gt;)</text>
</g>
<!-- kernel_sup (&lt;0.10.0&gt;)&#45;&#45;global_group (&lt;0.17.0&gt;) -->
<g id="edge16" class="edge"><title>kernel_sup (&lt;0.10.0&gt;)&#45;&#45;global_group (&lt;0.17.0&gt;)</title>
<path fill="none" stroke="black" d="M1006.07,-152.228C1088.34,-141.9 1220.84,-124.808 1335,-108 1346.88,-106.251 1359.46,-104.304 1371.71,-102.354"/>
</g>
<!-- rex (&lt;0.11.0&gt;) -->
<g id="node19" class="node"><title>rex (&lt;0.11.0&gt;)</title>
<ellipse fill="none" stroke="black" cx="1631" cy="-90" rx="65.0696" ry="18"/>
<text text-anchor="middle" x="1631" y="-85.4" font-family="Times,serif" font-size="14.00">rex (&lt;0.11.0&gt;)</text>
</g>
<!-- kernel_sup (&lt;0.10.0&gt;)&#45;&#45;rex (&lt;0.11.0&gt;) -->
<g id="edge18" class="edge"><title>kernel_sup (&lt;0.10.0&gt;)&#45;&#45;rex (&lt;0.11.0&gt;)</title>
<path fill="none" stroke="black" d="M1019.36,-158.512C1142.63,-152.849 1367.41,-138.996 1557,-108 1565.87,-106.549 1575.25,-104.599 1584.25,-102.518"/>
</g>
<!-- global_name_server (&lt;0.12.0&gt;) -->
<g id="node21" class="node"><title>global_name_server (&lt;0.12.0&gt;)</title>
<ellipse fill="none" stroke="black" cx="1842" cy="-90" rx="128.127" ry="18"/>
<text text-anchor="middle" x="1842" y="-85.4" font-family="Times,serif" font-size="14.00">global_name_server (&lt;0.12.0&gt;)</text>
</g>
<!-- kernel_sup (&lt;0.10.0&gt;)&#45;&#45;global_name_server (&lt;0.12.0&gt;) -->
<g id="edge20" class="edge"><title>kernel_sup (&lt;0.10.0&gt;)&#45;&#45;global_name_server (&lt;0.12.0&gt;)</title>
<path fill="none" stroke="black" d="M1018.18,-157.488C1163.65,-149.882 1457.12,-132.863 1705,-108 1719.92,-106.504 1735.72,-104.665 1751.08,-102.741"/>
</g>
<!-- standard_error (&lt;0.21.0&gt;) -->
<g id="node23" class="node"><title>standard_error (&lt;0.21.0&gt;)</title>
<ellipse fill="none" stroke="black" cx="305" cy="-18" rx="106.832" ry="18"/>
<text text-anchor="middle" x="305" y="-13.4" font-family="Times,serif" font-size="14.00">standard_error (&lt;0.21.0&gt;)</text>
</g>
<!-- standard_error_sup (&lt;0.20.0&gt;)&#45;&#45;standard_error (&lt;0.21.0&gt;) -->
<g id="edge22" class="edge"><title>standard_error_sup (&lt;0.20.0&gt;)&#45;&#45;standard_error (&lt;0.21.0&gt;)</title>
<path fill="none" stroke="black" d="M305,-71.8314C305,-61 305,-47.2876 305,-36.4133"/>
</g>
<!-- user (&lt;0.23.0&gt;) -->
<g id="node25" class="node"><title>user (&lt;0.23.0&gt;)</title>
<ellipse fill="none" stroke="black" cx="845" cy="-18" rx="69.0945" ry="18"/>
<text text-anchor="middle" x="845" y="-13.4" font-family="Times,serif" font-size="14.00">user (&lt;0.23.0&gt;)</text>
</g>
<!-- &lt;0.22.0&gt;&#45;&#45;user (&lt;0.23.0&gt;) -->
<g id="edge24" class="edge"><title>&lt;0.22.0&gt;&#45;&#45;user (&lt;0.23.0&gt;)</title>
<path fill="none" stroke="black" d="M845,-71.8314C845,-61 845,-47.2876 845,-36.4133"/>
</g>
<!-- &lt;0.13.0&gt; -->
<g id="node27" class="node"><title>&lt;0.13.0&gt;</title>
<ellipse fill="none" stroke="black" cx="1734" cy="-18" rx="45.1145" ry="18"/>
<text text-anchor="middle" x="1734" y="-13.4" font-family="Times,serif" font-size="14.00">&lt;0.13.0&gt;</text>
</g>
<!-- global_name_server (&lt;0.12.0&gt;)&#45;&#45;&lt;0.13.0&gt; -->
<g id="edge26" class="edge"><title>global_name_server (&lt;0.12.0&gt;)&#45;&#45;&lt;0.13.0&gt;</title>
<path fill="none" stroke="black" d="M1815.58,-72.3868C1797.72,-60.4801 1774.36,-44.9053 1757.21,-33.4755"/>
</g>
<!-- &lt;0.14.0&gt; -->
<g id="node29" class="node"><title>&lt;0.14.0&gt;</title>
<ellipse fill="none" stroke="black" cx="1842" cy="-18" rx="45.1145" ry="18"/>
<text text-anchor="middle" x="1842" y="-13.4" font-family="Times,serif" font-size="14.00">&lt;0.14.0&gt;</text>
</g>
<!-- global_name_server (&lt;0.12.0&gt;)&#45;&#45;&lt;0.14.0&gt; -->
<g id="edge28" class="edge"><title>global_name_server (&lt;0.12.0&gt;)&#45;&#45;&lt;0.14.0&gt;</title>
<path fill="none" stroke="black" d="M1842,-71.8314C1842,-61 1842,-47.2876 1842,-36.4133"/>
</g>
<!-- &lt;0.15.0&gt; -->
<g id="node31" class="node"><title>&lt;0.15.0&gt;</title>
<ellipse fill="none" stroke="black" cx="1950" cy="-18" rx="45.1145" ry="18"/>
<text text-anchor="middle" x="1950" y="-13.4" font-family="Times,serif" font-size="14.00">&lt;0.15.0&gt;</text>
</g>
<!-- global_name_server (&lt;0.12.0&gt;)&#45;&#45;&lt;0.15.0&gt; -->
<g id="edge30" class="edge"><title>global_name_server (&lt;0.12.0&gt;)&#45;&#45;&lt;0.15.0&gt;</title>
<path fill="none" stroke="black" d="M1868.42,-72.3868C1886.28,-60.4801 1909.64,-44.9053 1926.79,-33.4755"/>
</g>
</g>
</svg>
